<svg xmlns="http://www.w3.org/2000/svg" width="1920" height="1080"><path d="M1062,523L1167,656L1163,528Z" fill="#59a1cf" stroke="#59a1cf" stroke-width="1.51"/><path d="M1062,523L1010,660L1167,656Z" fill="#579fcd" stroke="#579fcd" stroke-width="1.51"/><path d="M1062,523L908,560L1010,660Z" fill="#63a7d2" stroke="#63a7d2" stroke-width="1.51"/><path d="M1167,656L1312,544L1163,528Z" fill="#519bcb" stroke="#519bcb" stroke-width="1.51"/><path d="M1062,523L898,395L908,560Z" fill="#75b3d8" stroke="#75b3d8" stroke-width="1.51"/><path d="M1157,375L1058,376L1062,523Z" fill="#78b2d6" stroke="#78b2d6" stroke-width="1.51"/><path d="M1157,375L1062,523L1163,528Z" fill="#6caad3" stroke="#6caad3" stroke-width="1.51"/><path d="M1312,544L1157,375L1163,528Z" fill="#64a5d0" stroke="#64a5d0" stroke-width="1.51"/><path d="M1005,849L1205,814L1167,656Z" fill="#408ac3" stroke="#408ac3" stroke-width="1.51"/><path d="M1167,656L1330,696L1312,544Z" fill="#4691c6" stroke="#4691c6" stroke-width="1.51"/><path d="M1205,814L1330,696L1167,656Z" fill="#3b89c2" stroke="#3b89c2" stroke-width="1.51"/><path d="M1010,660L1005,849L1167,656Z" fill="#4b94c8" stroke="#4b94c8" stroke-width="1.51"/><path d="M908,560L893,730L1010,660Z" fill="#5ea4d0" stroke="#5ea4d0" stroke-width="1.51"/><path d="M893,730L1005,849L1010,660Z" fill="#5196c9" stroke="#5196c9" stroke-width="1.51"/><path d="M1058,376L898,395L1062,523Z" fill="#7eb6d9" stroke="#7eb6d9" stroke-width="1.51"/><path d="M751,695L861,833L893,730Z" fill="#619dcc" stroke="#619dcc" stroke-width="1.51"/><path d="M1478,419L1363,355L1312,544Z" fill="#659dcc" stroke="#659dcc" stroke-width="1.51"/><path d="M1205,814L1353,836L1330,696Z" fill="#307ebc" stroke="#307ebc" stroke-width="1.51"/><path d="M1307,974L1353,836L1205,814Z" fill="#2a73b4" stroke="#2a73b4" stroke-width="1.51"/><path d="M893,730L861,833L1005,849Z" fill="#5192c7" stroke="#5192c7" stroke-width="1.51"/><path d="M751,695L893,730L908,560Z" fill="#67a8d2" stroke="#67a8d2" stroke-width="1.51"/><path d="M1312,544L1363,355L1157,375Z" fill="#6da6d0" stroke="#6da6d0" stroke-width="1.51"/><path d="M1157,375L1052,211L1058,376Z" fill="#8abadc" stroke="#8abadc" stroke-width="1.51"/><path d="M1493,557L1312,544L1330,696Z" fill="#458dc4" stroke="#458dc4" stroke-width="1.51"/><path d="M733,527L751,695L908,560Z" fill="#76b2d7" stroke="#76b2d7" stroke-width="1.51"/><path d="M1363,355L1219,230L1157,375Z" fill="#80b0d7" stroke="#80b0d7" stroke-width="1.51"/><path d="M1058,376L894,202L898,395Z" fill="#93c1e0" stroke="#93c1e0" stroke-width="1.51"/><path d="M898,395L733,527L908,560Z" fill="#81b9db" stroke="#81b9db" stroke-width="1.51"/><path d="M1353,836L1472,718L1330,696Z" fill="#2e7bbb" stroke="#2e7bbb" stroke-width="1.51"/><path d="M1472,718L1493,557L1330,696Z" fill="#3884bf" stroke="#3884bf" stroke-width="1.51"/><path d="M1219,230L1052,211L1157,375Z" fill="#8eb9dd" stroke="#8eb9dd" stroke-width="1.51"/><path d="M898,395L738,356L733,527Z" fill="#94c4df" stroke="#94c4df" stroke-width="1.51"/><path d="M1005,849L1060,996L1205,814Z" fill="#3b7eba" stroke="#3b7eba" stroke-width="1.51"/><path d="M898,965L1060,996L1005,849Z" fill="#437eb9" stroke="#437eb9" stroke-width="1.51"/><path d="M1363,355L1317,225L1219,230Z" fill="#86aed7" stroke="#86aed7" stroke-width="1.51"/><path d="M1493,557L1478,419L1312,544Z" fill="#5493c8" stroke="#5493c8" stroke-width="1.51"/><path d="M1060,996L1205,1005L1205,814Z" fill="#3174b3" stroke="#3174b3" stroke-width="1.51"/><path d="M1353,836L1514,883L1472,718Z" fill="#2170b4" stroke="#2170b4" stroke-width="1.51"/><path d="M1219,230L1152,72L1052,211Z" fill="#98bfe0" stroke="#98bfe0" stroke-width="1.51"/><path d="M1514,239L1317,225L1363,355Z" fill="#81a7d4" stroke="#81a7d4" stroke-width="1.51"/><path d="M861,833L898,965L1005,849Z" fill="#4d88c0" stroke="#4d88c0" stroke-width="1.51"/><path d="M726,876L898,965L861,833Z" fill="#588cc1" stroke="#588cc1" stroke-width="1.51"/><path d="M1205,1005L1307,974L1205,814Z" fill="#2b70b1" stroke="#2b70b1" stroke-width="1.51"/><path d="M894,202L738,356L898,395Z" fill="#9fc8e3" stroke="#9fc8e3" stroke-width="1.51"/><path d="M1052,211L894,202L1058,376Z" fill="#99c2e1" stroke="#99c2e1" stroke-width="1.51"/><path d="M1053,69L894,202L1052,211Z" fill="#a2c8e4" stroke="#a2c8e4" stroke-width="1.51"/><path d="M751,695L726,876L861,833Z" fill="#639aca" stroke="#639aca" stroke-width="1.51"/><path d="M541,707L726,876L751,695Z" fill="#72a4d0" stroke="#72a4d0" stroke-width="1.51"/><path d="M1481,1015L1514,883L1353,836Z" fill="#1964ab" stroke="#1964ab" stroke-width="1.51"/><path d="M1472,718L1612,561L1493,557Z" fill="#3d81bc" stroke="#3d81bc" stroke-width="1.51"/><path d="M1493,557L1612,561L1478,419Z" fill="#508bc2" stroke="#508bc2" stroke-width="1.51"/><path d="M1478,419L1514,239L1363,355Z" fill="#749fce" stroke="#749fce" stroke-width="1.51"/><path d="M1686,707L1612,561L1472,718Z" fill="#3178b6" stroke="#3178b6" stroke-width="1.51"/><path d="M1321,97L1152,72L1219,230Z" fill="#96bbde" stroke="#96bbde" stroke-width="1.51"/><path d="M1152,72L1053,69L1052,211Z" fill="#a1c5e3" stroke="#a1c5e3" stroke-width="1.51"/><path d="M592,394L586,507L733,527Z" fill="#98c5e1" stroke="#98c5e1" stroke-width="1.51"/><path d="M733,527L586,507L751,695Z" fill="#84b9db" stroke="#84b9db" stroke-width="1.51"/><path d="M894,202L739,215L738,356Z" fill="#adcfe7" stroke="#adcfe7" stroke-width="1.51"/><path d="M763,106L739,215L894,202Z" fill="#b3d3e9" stroke="#b3d3e9" stroke-width="1.51"/><path d="M592,394L733,527L738,356Z" fill="#9ec9e1" stroke="#9ec9e1" stroke-width="1.51"/><path d="M1623,352L1514,239L1478,419Z" fill="#7299ca" stroke="#7299ca" stroke-width="1.51"/><path d="M1317,225L1321,97L1219,230Z" fill="#8fb4da" stroke="#8fb4da" stroke-width="1.51"/><path d="M1514,239L1321,97L1317,225Z" fill="#8aadd7" stroke="#8aadd7" stroke-width="1.51"/><path d="M1060,996L1195,1138L1205,1005Z" fill="#2f669f" stroke="#2f669f" stroke-width="1.51"/><path d="M1205,1005L1329,1124L1307,974Z" fill="#25609d" stroke="#25609d" stroke-width="1.51"/><path d="M1307,974L1481,1015L1353,836Z" fill="#1e65ab" stroke="#1e65ab" stroke-width="1.51"/><path d="M1075,1160L1195,1138L1060,996Z" fill="#32649a" stroke="#32649a" stroke-width="1.51"/><path d="M1075,1160L1060,996L865,1153Z" fill="#3c699e" stroke="#3c699e" stroke-width="1.51"/><path d="M593,206L592,394L738,356Z" fill="#b2d3e8" stroke="#b2d3e8" stroke-width="1.51"/><path d="M1658,831L1686,707L1472,718Z" fill="#246db0" stroke="#246db0" stroke-width="1.51"/><path d="M1329,1124L1481,1015L1307,974Z" fill="#1d5999" stroke="#1d5999" stroke-width="1.51"/><path d="M726,876L738,1021L898,965Z" fill="#5a86bb" stroke="#5a86bb" stroke-width="1.51"/><path d="M608,1004L738,1021L726,876Z" fill="#6488bb" stroke="#6488bb" stroke-width="1.51"/><path d="M865,1153L1060,996L898,965Z" fill="#4372a8" stroke="#4372a8" stroke-width="1.51"/><path d="M1612,561L1623,352L1478,419Z" fill="#5d8fc3" stroke="#5d8fc3" stroke-width="1.51"/><path d="M1478,1133L1329,1124L1463,1281Z" fill="#175090" stroke="#175090" stroke-width="1.51"/><path d="M1195,1138L1329,1124L1205,1005Z" fill="#265c96" stroke="#265c96" stroke-width="1.51"/><path d="M586,507L541,707L751,695Z" fill="#82b5d9" stroke="#82b5d9" stroke-width="1.51"/><path d="M423,687L541,707L407,565Z" fill="#8eb9dd" stroke="#8eb9dd" stroke-width="1.51"/><path d="M1658,831L1472,718L1514,883Z" fill="#1d69af" stroke="#1d69af" stroke-width="1.51"/><path d="M1612,561L1768,404L1623,352Z" fill="#5c89bd" stroke="#5c89bd" stroke-width="1.51"/><path d="M1645,963L1658,831L1514,883Z" fill="#135ca5" stroke="#135ca5" stroke-width="1.51"/><path d="M851,44L763,106L894,202Z" fill="#b5d4ea" stroke="#b5d4ea" stroke-width="1.51"/><path d="M739,215L593,206L738,356Z" fill="#b6d4e9" stroke="#b6d4e9" stroke-width="1.51"/><path d="M1054,-43L851,44L1053,69Z" fill="#b1d1e9" stroke="#b1d1e9" stroke-width="1.51"/><path d="M1053,69L851,44L894,202Z" fill="#add0e8" stroke="#add0e8" stroke-width="1.51"/><path d="M738,1021L865,1153L898,965Z" fill="#5077a9" stroke="#5077a9" stroke-width="1.51"/><path d="M738,1021L714,1149L865,1153Z" fill="#5576a4" stroke="#5576a4" stroke-width="1.51"/><path d="M541,707L539,846L726,876Z" fill="#74a0cf" stroke="#74a0cf" stroke-width="1.51"/><path d="M1152,72L1054,-43L1053,69Z" fill="#a9cae6" stroke="#a9cae6" stroke-width="1.51"/><path d="M1200,-111L1054,-43L1152,72Z" fill="#a9c9e5" stroke="#a9c9e5" stroke-width="1.51"/><path d="M575,42L593,206L763,106Z" fill="#c6deee" stroke="#c6deee" stroke-width="1.51"/><path d="M763,106L593,206L739,215Z" fill="#bdd9eb" stroke="#bdd9eb" stroke-width="1.51"/><path d="M407,565L541,707L586,507Z" fill="#92bedf" stroke="#92bedf" stroke-width="1.51"/><path d="M539,846L608,1004L726,876Z" fill="#6d92c5" stroke="#6d92c5" stroke-width="1.51"/><path d="M1481,1015L1645,963L1514,883Z" fill="#1159a1" stroke="#1159a1" stroke-width="1.51"/><path d="M1799,700L1799,524L1686,707Z" fill="#316eaa" stroke="#316eaa" stroke-width="1.51"/><path d="M1614,1139L1645,963L1481,1015Z" fill="#0f4c90" stroke="#0f4c90" stroke-width="1.51"/><path d="M1329,1124L1478,1133L1481,1015Z" fill="#175090" stroke="#175090" stroke-width="1.51"/><path d="M1191,1288L1329,1124L1195,1138Z" fill="#265d96" stroke="#265d96" stroke-width="1.51"/><path d="M1321,97L1200,-111L1152,72Z" fill="#a1c3e1" stroke="#a1c3e1" stroke-width="1.51"/><path d="M1514,239L1495,61L1321,97Z" fill="#8cacd6" stroke="#8cacd6" stroke-width="1.51"/><path d="M1659,48L1495,61L1514,239Z" fill="#8ba4d1" stroke="#8ba4d1" stroke-width="1.51"/><path d="M1623,352L1677,219L1514,239Z" fill="#7a98c9" stroke="#7a98c9" stroke-width="1.51"/><path d="M1768,404L1677,219L1623,352Z" fill="#6f8fc1" stroke="#6f8fc1" stroke-width="1.51"/><path d="M1005,1324L1191,1288L1075,1160Z" fill="#34659b" stroke="#34659b" stroke-width="1.51"/><path d="M608,1004L714,1149L738,1021Z" fill="#5f7caa" stroke="#5f7caa" stroke-width="1.51"/><path d="M1799,524L1768,404L1612,561Z" fill="#4e7eb6" stroke="#4e7eb6" stroke-width="1.51"/><path d="M1799,524L1612,561L1686,707Z" fill="#3b77b3" stroke="#3b77b3" stroke-width="1.51"/><path d="M541,707L438,819L539,846Z" fill="#7fa6d2" stroke="#7fa6d2" stroke-width="1.51"/><path d="M539,846L446,985L608,1004Z" fill="#7491c4" stroke="#7491c4" stroke-width="1.51"/><path d="M407,565L586,507L402,361Z" fill="#a7cbe5" stroke="#a7cbe5" stroke-width="1.51"/><path d="M1799,700L1686,707L1795,818Z" fill="#2263a4" stroke="#2263a4" stroke-width="1.51"/><path d="M1795,818L1686,707L1658,831Z" fill="#1b61a6" stroke="#1b61a6" stroke-width="1.51"/><path d="M1495,61L1380,-50L1321,97Z" fill="#98b5db" stroke="#98b5db" stroke-width="1.51"/><path d="M1466,-54L1380,-50L1495,61Z" fill="#99b3da" stroke="#99b3da" stroke-width="1.51"/><path d="M1075,1160L1191,1288L1195,1138Z" fill="#2e6199" stroke="#2e6199" stroke-width="1.51"/><path d="M1005,1324L1075,1160L865,1153Z" fill="#3d6a9f" stroke="#3d6a9f" stroke-width="1.51"/><path d="M402,361L586,507L592,394Z" fill="#abcfe6" stroke="#abcfe6" stroke-width="1.51"/><path d="M423,687L438,819L541,707Z" fill="#86aed7" stroke="#86aed7" stroke-width="1.51"/><path d="M608,1004L593,1164L714,1149Z" fill="#617ba7" stroke="#617ba7" stroke-width="1.51"/><path d="M446,985L438,819L302,850Z" fill="#809dcc" stroke="#809dcc" stroke-width="1.51"/><path d="M1054,-43L891,-85L851,44Z" fill="#b7d5eb" stroke="#b7d5eb" stroke-width="1.51"/><path d="M1380,-50L1200,-111L1321,97Z" fill="#a0bedf" stroke="#a0bedf" stroke-width="1.51"/><path d="M851,44L760,-39L763,106Z" fill="#c1dced" stroke="#c1dced" stroke-width="1.51"/><path d="M1043,-226L891,-85L1054,-43Z" fill="#b2d2ea" stroke="#b2d2ea" stroke-width="1.51"/><path d="M1815,972L1658,831L1645,963Z" fill="#0b519b" stroke="#0b519b" stroke-width="1.51"/><path d="M1815,972L1795,818L1658,831Z" fill="#11549a" stroke="#11549a" stroke-width="1.51"/><path d="M891,-85L760,-39L851,44Z" fill="#c1dced" stroke="#c1dced" stroke-width="1.51"/><path d="M850,1295L1005,1324L865,1153Z" fill="#466ea0" stroke="#466ea0" stroke-width="1.51"/><path d="M1321,-193L1197,-196L1200,-111Z" fill="#a3c2e1" stroke="#a3c2e1" stroke-width="1.51"/><path d="M1626,-62L1466,-54L1495,61Z" fill="#97acd6" stroke="#97acd6" stroke-width="1.51"/><path d="M1478,1133L1614,1139L1481,1015Z" fill="#124a8b" stroke="#124a8b" stroke-width="1.51"/><path d="M1463,1281L1614,1139L1478,1133Z" fill="#124a8b" stroke="#124a8b" stroke-width="1.51"/><path d="M440,260L592,394L593,206Z" fill="#bfd8ec" stroke="#bfd8ec" stroke-width="1.51"/><path d="M440,260L402,361L592,394Z" fill="#bcd6eb" stroke="#bcd6eb" stroke-width="1.51"/><path d="M735,1299L850,1295L865,1153Z" fill="#5073a3" stroke="#5073a3" stroke-width="1.51"/><path d="M437,100L440,260L593,206Z" fill="#ccdff1" stroke="#ccdff1" stroke-width="1.51"/><path d="M760,-39L575,42L763,106Z" fill="#cae1ef" stroke="#cae1ef" stroke-width="1.51"/><path d="M446,985L593,1164L608,1004Z" fill="#6b82af" stroke="#6b82af" stroke-width="1.51"/><path d="M714,1149L735,1299L865,1153Z" fill="#5576a4" stroke="#5576a4" stroke-width="1.51"/><path d="M302,850L438,819L423,687Z" fill="#86aad5" stroke="#86aad5" stroke-width="1.51"/><path d="M438,819L446,985L539,846Z" fill="#7c9acb" stroke="#7c9acb" stroke-width="1.51"/><path d="M1366,1341L1463,1281L1329,1124Z" fill="#1b5391" stroke="#1b5391" stroke-width="1.51"/><path d="M1366,1341L1329,1124L1191,1288Z" fill="#225994" stroke="#225994" stroke-width="1.51"/><path d="M1677,219L1659,48L1514,239Z" fill="#849dcc" stroke="#849dcc" stroke-width="1.51"/><path d="M1803,78L1659,48L1677,219Z" fill="#8598c6" stroke="#8598c6" stroke-width="1.51"/><path d="M1005,1324L1366,1341L1191,1288Z" fill="#2a5f98" stroke="#2a5f98" stroke-width="1.51"/><path d="M1200,-111L1043,-226L1054,-43Z" fill="#abcbe6" stroke="#abcbe6" stroke-width="1.51"/><path d="M708,-207L573,-89L760,-39Z" fill="#cfe4f1" stroke="#cfe4f1" stroke-width="1.51"/><path d="M1321,-193L1200,-111L1380,-50Z" fill="#a0bedf" stroke="#a0bedf" stroke-width="1.51"/><path d="M607,1270L735,1299L714,1149Z" fill="#5d79a6" stroke="#5d79a6" stroke-width="1.51"/><path d="M850,1295L735,1299L1005,1324Z" fill="#4b71a1" stroke="#4b71a1" stroke-width="1.51"/><path d="M1614,1139L1815,972L1645,963Z" fill="#09468c" stroke="#09468c" stroke-width="1.51"/><path d="M1923,714L1927,514L1799,700Z" fill="#2f659d" stroke="#2f659d" stroke-width="1.51"/><path d="M1799,700L1927,514L1799,524Z" fill="#3b6ea5" stroke="#3b6ea5" stroke-width="1.51"/><path d="M1814,1175L1815,972L1614,1139Z" fill="#093b7c" stroke="#093b7c" stroke-width="1.51"/><path d="M1466,-54L1321,-193L1380,-50Z" fill="#9cb7dc" stroke="#9cb7dc" stroke-width="1.51"/><path d="M1529,-262L1321,-193L1466,-54Z" fill="#9ab3da" stroke="#9ab3da" stroke-width="1.51"/><path d="M1768,404L1840,196L1677,219Z" fill="#748cbc" stroke="#748cbc" stroke-width="1.51"/><path d="M1799,524L1927,514L1768,404Z" fill="#4f78ab" stroke="#4f78ab" stroke-width="1.51"/><path d="M1923,714L1799,700L1795,818Z" fill="#215d9b" stroke="#215d9b" stroke-width="1.51"/><path d="M1197,-196L1043,-226L1200,-111Z" fill="#a8c8e5" stroke="#a8c8e5" stroke-width="1.51"/><path d="M760,-39L573,-89L575,42Z" fill="#d2e5f2" stroke="#d2e5f2" stroke-width="1.51"/><path d="M1529,-262L1043,-226L1197,-196Z" fill="#a2c1e1" stroke="#a2c1e1" stroke-width="1.51"/><path d="M1934,812L1923,714L1795,818Z" fill="#1b5595" stroke="#1b5595" stroke-width="1.51"/><path d="M1954,360L1840,196L1768,404Z" fill="#6982b0" stroke="#6982b0" stroke-width="1.51"/><path d="M575,42L437,100L593,206Z" fill="#d0e2f2" stroke="#d0e2f2" stroke-width="1.51"/><path d="M296,217L282,416L402,361Z" fill="#c5dcee" stroke="#c5dcee" stroke-width="1.51"/><path d="M423,-51L437,100L575,42Z" fill="#dce9f6" stroke="#dce9f6" stroke-width="1.51"/><path d="M1802,-95L1626,-62L1659,48Z" fill="#91a0cc" stroke="#91a0cc" stroke-width="1.51"/><path d="M1659,48L1626,-62L1495,61Z" fill="#93a6d1" stroke="#93a6d1" stroke-width="1.51"/><path d="M423,1153L607,1270L593,1164Z" fill="#697ea9" stroke="#697ea9" stroke-width="1.51"/><path d="M593,1164L607,1270L714,1149Z" fill="#617ba7" stroke="#617ba7" stroke-width="1.51"/><path d="M265,677L302,850L423,687Z" fill="#8db2d9" stroke="#8db2d9" stroke-width="1.51"/><path d="M402,361L282,416L407,565Z" fill="#b1d2e8" stroke="#b1d2e8" stroke-width="1.51"/><path d="M296,217L402,361L440,260Z" fill="#cadef0" stroke="#cadef0" stroke-width="1.51"/><path d="M265,677L423,687L407,565Z" fill="#95bddf" stroke="#95bddf" stroke-width="1.51"/><path d="M446,985L423,1153L593,1164Z" fill="#6e7fab" stroke="#6e7fab" stroke-width="1.51"/><path d="M258,533L265,677L407,565Z" fill="#9dc4e3" stroke="#9dc4e3" stroke-width="1.51"/><path d="M1923,714L2078,530L1927,514Z" fill="#38679d" stroke="#38679d" stroke-width="1.51"/><path d="M1815,972L1934,812L1795,818Z" fill="#124e91" stroke="#124e91" stroke-width="1.51"/><path d="M282,416L258,533L407,565Z" fill="#a9cde7" stroke="#a9cde7" stroke-width="1.51"/><path d="M1840,196L1803,78L1677,219Z" fill="#7e91be" stroke="#7e91be" stroke-width="1.51"/><path d="M708,-207L760,-39L891,-85Z" fill="#c5deee" stroke="#c5deee" stroke-width="1.51"/><path d="M1927,514L1954,360L1768,404Z" fill="#5879a7" stroke="#5879a7" stroke-width="1.51"/><path d="M1840,196L1984,100L1803,78Z" fill="#7d8bb5" stroke="#7d8bb5" stroke-width="1.51"/><path d="M2078,530L1954,360L1927,514Z" fill="#4e72a2" stroke="#4e72a2" stroke-width="1.51"/><path d="M1043,-226L844,-243L891,-85Z" fill="#b8d6ec" stroke="#b8d6ec" stroke-width="1.51"/><path d="M1815,972L1994,1029L1934,812Z" fill="#0a4284" stroke="#0a4284" stroke-width="1.51"/><path d="M1463,1281L1668,1280L1614,1139Z" fill="#0f4688" stroke="#0f4688" stroke-width="1.51"/><path d="M1366,1341L1668,1280L1463,1281Z" fill="#134c8c" stroke="#134c8c" stroke-width="1.51"/><path d="M293,1021L423,1153L446,985Z" fill="#7586b2" stroke="#7586b2" stroke-width="1.51"/><path d="M844,-243L708,-207L891,-85Z" fill="#c2ddee" stroke="#c2ddee" stroke-width="1.51"/><path d="M305,42L296,217L437,100Z" fill="#dae8f5" stroke="#dae8f5" stroke-width="1.51"/><path d="M437,100L296,217L440,260Z" fill="#d2e2f3" stroke="#d2e2f3" stroke-width="1.51"/><path d="M103,513L129,702L258,533Z" fill="#a7cae6" stroke="#a7cae6" stroke-width="1.51"/><path d="M1668,1280L1814,1175L1614,1139Z" fill="#093f81" stroke="#093f81" stroke-width="1.51"/><path d="M1954,360L1953,239L1840,196Z" fill="#6f81ac" stroke="#6f81ac" stroke-width="1.51"/><path d="M139,1018L293,1021L302,850Z" fill="#8397c6" stroke="#8397c6" stroke-width="1.51"/><path d="M302,850L293,1021L446,985Z" fill="#7e96c6" stroke="#7e96c6" stroke-width="1.51"/><path d="M573,-89L423,-51L575,42Z" fill="#dbe9f6" stroke="#dbe9f6" stroke-width="1.51"/><path d="M449,-245L423,-51L573,-89Z" fill="#dfebf7" stroke="#dfebf7" stroke-width="1.51"/><path d="M1321,-193L1529,-262L1197,-196Z" fill="#9ebadd" stroke="#9ebadd" stroke-width="1.51"/><path d="M1043,-226L1529,-262L844,-243Z" fill="#a9c9e5" stroke="#a9c9e5" stroke-width="1.51"/><path d="M1626,-62L1529,-262L1466,-54Z" fill="#96abd5" stroke="#96abd5" stroke-width="1.51"/><path d="M1626,-249L1529,-262L1626,-62Z" fill="#95a7d2" stroke="#95a7d2" stroke-width="1.51"/><path d="M1802,-95L1659,48L1803,78Z" fill="#8d9ac4" stroke="#8d9ac4" stroke-width="1.51"/><path d="M1668,1280L1766,1292L1814,1175Z" fill="#093b7c" stroke="#093b7c" stroke-width="1.51"/><path d="M1366,1341L1766,1292L1668,1280Z" fill="#0e4587" stroke="#0e4587" stroke-width="1.51"/><path d="M1954,360L2145,251L1953,239Z" fill="#6c7fab" stroke="#6c7fab" stroke-width="1.51"/><path d="M2115,686L2078,530L1923,714Z" fill="#2f6299" stroke="#2f6299" stroke-width="1.51"/><path d="M2115,686L1923,714L1934,812Z" fill="#215894" stroke="#215894" stroke-width="1.51"/><path d="M423,-51L305,42L437,100Z" fill="#e0ecf8" stroke="#e0ecf8" stroke-width="1.51"/><path d="M103,513L258,533L282,416Z" fill="#b2d3e9" stroke="#b2d3e9" stroke-width="1.51"/><path d="M1962,-42L1802,-95L1803,78Z" fill="#8a93ba" stroke="#8a93ba" stroke-width="1.51"/><path d="M265,677L129,702L302,850Z" fill="#92b5da" stroke="#92b5da" stroke-width="1.51"/><path d="M258,533L129,702L265,677Z" fill="#9dc3e1" stroke="#9dc3e1" stroke-width="1.51"/><path d="M103,513L282,416L77,352Z" fill="#bfdbec" stroke="#bfdbec" stroke-width="1.51"/><path d="M1814,1175L1994,1029L1815,972Z" fill="#083573" stroke="#083573" stroke-width="1.51"/><path d="M1971,1168L1994,1029L1814,1175Z" fill="#08306b" stroke="#08306b" stroke-width="1.51"/><path d="M1774,-213L1626,-249L1626,-62Z" fill="#92a2cd" stroke="#92a2cd" stroke-width="1.51"/><path d="M2145,251L1984,100L1953,239Z" fill="#7584ad" stroke="#7584ad" stroke-width="1.51"/><path d="M1953,239L1984,100L1840,196Z" fill="#7685ae" stroke="#7685ae" stroke-width="1.51"/><path d="M1994,1029L2085,846L1934,812Z" fill="#0e4687" stroke="#0e4687" stroke-width="1.51"/><path d="M77,352L282,416L101,236Z" fill="#cde2f1" stroke="#cde2f1" stroke-width="1.51"/><path d="M2085,846L2115,686L1934,812Z" fill="#1b5391" stroke="#1b5391" stroke-width="1.51"/><path d="M2078,530L2130,409L1954,360Z" fill="#5576a4" stroke="#5576a4" stroke-width="1.51"/><path d="M708,-207L543,-265L573,-89Z" fill="#d4e6f3" stroke="#d4e6f3" stroke-width="1.51"/><path d="M423,-51L305,-86L305,42Z" fill="#e6effa" stroke="#e6effa" stroke-width="1.51"/><path d="M844,-243L543,-265L708,-207Z" fill="#cde3f0" stroke="#cde3f0" stroke-width="1.51"/><path d="M1529,-262L543,-265L844,-243Z" fill="#b4d3ea" stroke="#b4d3ea" stroke-width="1.51"/><path d="M274,1299L399,1343L423,1153Z" fill="#7483ad" stroke="#7483ad" stroke-width="1.51"/><path d="M423,1153L399,1343L607,1270Z" fill="#6e80ab" stroke="#6e80ab" stroke-width="1.51"/><path d="M607,1270L399,1343L735,1299Z" fill="#667da8" stroke="#667da8" stroke-width="1.51"/><path d="M735,1299L399,1343L1005,1324Z" fill="#5b78a5" stroke="#5b78a5" stroke-width="1.51"/><path d="M1005,1324L399,1343L1366,1341Z" fill="#436ea0" stroke="#436ea0" stroke-width="1.51"/><path d="M251,1180L423,1153L293,1021Z" fill="#7684ae" stroke="#7684ae" stroke-width="1.51"/><path d="M1994,1029L2086,997L2085,846Z" fill="#093f81" stroke="#093f81" stroke-width="1.51"/><path d="M1938,1339L1971,1168L1814,1175Z" fill="#08316c" stroke="#08316c" stroke-width="1.51"/><path d="M2285,543L2130,409L2078,530Z" fill="#4970a1" stroke="#4970a1" stroke-width="1.51"/><path d="M139,1018L251,1180L293,1021Z" fill="#7b89b0" stroke="#7b89b0" stroke-width="1.51"/><path d="M1945,-207L1774,-213L1802,-95Z" fill="#8a95bc" stroke="#8a95bc" stroke-width="1.51"/><path d="M1802,-95L1774,-213L1626,-62Z" fill="#8f9dc8" stroke="#8f9dc8" stroke-width="1.51"/><path d="M101,236L282,416L296,217Z" fill="#d0e2f2" stroke="#d0e2f2" stroke-width="1.51"/><path d="M449,-245L305,-86L423,-51Z" fill="#e3eef9" stroke="#e3eef9" stroke-width="1.51"/><path d="M129,702L86,855L302,850Z" fill="#91afd8" stroke="#91afd8" stroke-width="1.51"/><path d="M-51,688L86,855L129,702Z" fill="#9bb9dd" stroke="#9bb9dd" stroke-width="1.51"/><path d="M2084,1169L2086,997L1994,1029Z" fill="#08326d" stroke="#08326d" stroke-width="1.51"/><path d="M2303,841L2264,679L2115,686Z" fill="#215894" stroke="#215894" stroke-width="1.51"/><path d="M86,855L139,1018L302,850Z" fill="#8aa1ce" stroke="#8aa1ce" stroke-width="1.51"/><path d="M103,513L-51,688L129,702Z" fill="#a6c7e4" stroke="#a6c7e4" stroke-width="1.51"/><path d="M101,236L296,217L79,68Z" fill="#dfebf8" stroke="#dfebf8" stroke-width="1.51"/><path d="M1984,100L1962,-42L1803,78Z" fill="#838cb2" stroke="#838cb2" stroke-width="1.51"/><path d="M2097,70L1962,-42L1984,100Z" fill="#838cb2" stroke="#838cb2" stroke-width="1.51"/><path d="M543,-265L449,-245L573,-89Z" fill="#dbe9f6" stroke="#dbe9f6" stroke-width="1.51"/><path d="M79,68L296,217L305,42Z" fill="#e1edf8" stroke="#e1edf8" stroke-width="1.51"/><path d="M2130,409L2145,251L1954,360Z" fill="#647ca8" stroke="#647ca8" stroke-width="1.51"/><path d="M2250,363L2145,251L2130,409Z" fill="#647ca8" stroke="#647ca8" stroke-width="1.51"/><path d="M147,1314L274,1299L251,1180Z" fill="#7b87b0" stroke="#7b87b0" stroke-width="1.51"/><path d="M251,1180L274,1299L423,1153Z" fill="#7685ae" stroke="#7685ae" stroke-width="1.51"/><path d="M1971,1168L2084,1169L1994,1029Z" fill="#08306b" stroke="#08306b" stroke-width="1.51"/><path d="M1766,1292L1938,1339L1814,1175Z" fill="#093573" stroke="#093573" stroke-width="1.51"/><path d="M1366,1341L1938,1339L1766,1292Z" fill="#094082" stroke="#094082" stroke-width="1.51"/><path d="M1962,-42L1945,-207L1802,-95Z" fill="#878fb5" stroke="#878fb5" stroke-width="1.51"/><path d="M2145,251L2097,70L1984,100Z" fill="#7a87af" stroke="#7a87af" stroke-width="1.51"/><path d="M139,1018L147,1182L251,1180Z" fill="#7d89b0" stroke="#7d89b0" stroke-width="1.51"/><path d="M-4,1184L147,1182L139,1018Z" fill="#828bb2" stroke="#828bb2" stroke-width="1.51"/><path d="M2134,1275L2084,1169L1971,1168Z" fill="#08306b" stroke="#08306b" stroke-width="1.51"/><path d="M2303,841L2115,686L2085,846Z" fill="#195290" stroke="#195290" stroke-width="1.51"/><path d="M2115,686L2285,543L2078,530Z" fill="#38679d" stroke="#38679d" stroke-width="1.51"/><path d="M-23,202L-22,394L77,352Z" fill="#d8e7f4" stroke="#d8e7f4" stroke-width="1.51"/><path d="M77,352L-22,394L103,513Z" fill="#c6dfee" stroke="#c6dfee" stroke-width="1.51"/><path d="M86,855L-32,1006L139,1018Z" fill="#8d9dca" stroke="#8d9dca" stroke-width="1.51"/><path d="M-23,202L77,352L101,236Z" fill="#ddeaf6" stroke="#ddeaf6" stroke-width="1.51"/><path d="M125,-84L79,68L305,42Z" fill="#edf5fc" stroke="#edf5fc" stroke-width="1.51"/><path d="M125,-84L305,42L305,-86Z" fill="#ebf3fb" stroke="#ebf3fb" stroke-width="1.51"/><path d="M2075,-110L1945,-207L1962,-42Z" fill="#878eb3" stroke="#878eb3" stroke-width="1.51"/><path d="M1774,-213L1945,-207L1626,-249Z" fill="#8d99c2" stroke="#8d99c2" stroke-width="1.51"/><path d="M1626,-249L2289,-236L1529,-262Z" fill="#8c96be" stroke="#8c96be" stroke-width="1.51"/><path d="M2303,841L2085,846L2259,1036Z" fill="#0d4586" stroke="#0d4586" stroke-width="1.51"/><path d="M2145,251L2248,88L2097,70Z" fill="#7a87af" stroke="#7a87af" stroke-width="1.51"/><path d="M-68,562L-51,688L103,513Z" fill="#afcfe8" stroke="#afcfe8" stroke-width="1.51"/><path d="M2285,543L2250,363L2130,409Z" fill="#5475a3" stroke="#5475a3" stroke-width="1.51"/><path d="M2250,363L2237,271L2145,251Z" fill="#6b7faa" stroke="#6b7faa" stroke-width="1.51"/><path d="M2097,70L2075,-110L1962,-42Z" fill="#878eb3" stroke="#878eb3" stroke-width="1.51"/><path d="M2250,363L2248,88L2237,271Z" fill="#7181ac" stroke="#7181ac" stroke-width="1.51"/><path d="M2264,679L2285,543L2115,686Z" fill="#30639a" stroke="#30639a" stroke-width="1.51"/><path d="M-22,394L-68,562L103,513Z" fill="#bdd9ed" stroke="#bdd9ed" stroke-width="1.51"/><path d="M-51,688L-50,845L86,855Z" fill="#9bb5db" stroke="#9bb5db" stroke-width="1.51"/><path d="M-169,729L-50,845L-51,688Z" fill="#9ebbde" stroke="#9ebbde" stroke-width="1.51"/><path d="M238,-242L125,-84L305,-86Z" fill="#ecf3fc" stroke="#ecf3fc" stroke-width="1.51"/><path d="M-22,113L-23,202L101,236Z" fill="#e5eff9" stroke="#e5eff9" stroke-width="1.51"/><path d="M2238,-64L2075,-110L2097,70Z" fill="#878eb3" stroke="#878eb3" stroke-width="1.51"/><path d="M-22,113L101,236L79,68Z" fill="#e8f1fa" stroke="#e8f1fa" stroke-width="1.51"/><path d="M-222,569L-169,729L-68,562Z" fill="#abcbe6" stroke="#abcbe6" stroke-width="1.51"/><path d="M147,1182L147,1314L251,1180Z" fill="#7d89b0" stroke="#7d89b0" stroke-width="1.51"/><path d="M274,1299L147,1314L399,1343Z" fill="#7986af" stroke="#7986af" stroke-width="1.51"/><path d="M-4,1184L147,1314L147,1182Z" fill="#828bb2" stroke="#828bb2" stroke-width="1.51"/><path d="M543,-265L238,-242L449,-245Z" fill="#e2edf8" stroke="#e2edf8" stroke-width="1.51"/><path d="M449,-245L238,-242L305,-86Z" fill="#e6f0fa" stroke="#e6f0fa" stroke-width="1.51"/><path d="M-50,845L-32,1006L86,855Z" fill="#94a7d1" stroke="#94a7d1" stroke-width="1.51"/><path d="M2264,679L2303,841L2285,543Z" fill="#275e96" stroke="#275e96" stroke-width="1.51"/><path d="M2259,1036L2085,846L2086,997Z" fill="#093e81" stroke="#093e81" stroke-width="1.51"/><path d="M-3,-103L79,68L125,-84Z" fill="#f4f9fe" stroke="#f4f9fe" stroke-width="1.51"/><path d="M-3,-103L-22,113L79,68Z" fill="#f4f9fe" stroke="#f4f9fe" stroke-width="1.51"/><path d="M-222,569L-68,562L-231,370Z" fill="#bbd8ec" stroke="#bbd8ec" stroke-width="1.51"/><path d="M2084,1169L2259,1036L2086,997Z" fill="#08316d" stroke="#08316d" stroke-width="1.51"/><path d="M1938,1339L2134,1275L1971,1168Z" fill="#08306b" stroke="#08306b" stroke-width="1.51"/><path d="M2257,1175L2259,1036L2084,1169Z" fill="#08306b" stroke="#08306b" stroke-width="1.51"/><path d="M2285,543L2248,88L2250,363Z" fill="#657ca8" stroke="#657ca8" stroke-width="1.51"/><path d="M2237,271L2248,88L2145,251Z" fill="#7483ad" stroke="#7483ad" stroke-width="1.51"/><path d="M-32,1006L-4,1184L139,1018Z" fill="#868fb5" stroke="#868fb5" stroke-width="1.51"/><path d="M2238,-64L2095,-204L2075,-110Z" fill="#878eb3" stroke="#878eb3" stroke-width="1.51"/><path d="M2075,-110L2095,-204L1945,-207Z" fill="#878eb3" stroke="#878eb3" stroke-width="1.51"/><path d="M1945,-207L2289,-236L1626,-249Z" fill="#878eb3" stroke="#878eb3" stroke-width="1.51"/><path d="M-32,1006L-212,1143L-4,1184Z" fill="#878eb3" stroke="#878eb3" stroke-width="1.51"/><path d="M-50,845L-158,856L-32,1006Z" fill="#94a7d1" stroke="#94a7d1" stroke-width="1.51"/><path d="M-68,562L-169,729L-51,688Z" fill="#a6c7e4" stroke="#a6c7e4" stroke-width="1.51"/><path d="M-68,562L-22,394L-231,370Z" fill="#c5deee" stroke="#c5deee" stroke-width="1.51"/><path d="M2134,1275L2257,1175L2084,1169Z" fill="#08306b" stroke="#08306b" stroke-width="1.51"/><path d="M2259,1036L2257,1175L2303,841Z" fill="#093776" stroke="#093776" stroke-width="1.51"/><path d="M-169,729L-158,856L-50,845Z" fill="#9ab3da" stroke="#9ab3da" stroke-width="1.51"/><path d="M238,-242L80,-207L125,-84Z" fill="#f0f6fd" stroke="#f0f6fd" stroke-width="1.51"/><path d="M2248,88L2238,-64L2097,70Z" fill="#848cb2" stroke="#848cb2" stroke-width="1.51"/><path d="M2289,-236L2238,-64L2248,88Z" fill="#878eb3" stroke="#878eb3" stroke-width="1.51"/><path d="M80,-207L-3,-103L125,-84Z" fill="#f4f8fe" stroke="#f4f8fe" stroke-width="1.51"/><path d="M-231,370L-22,394L-23,202Z" fill="#d7e7f5" stroke="#d7e7f5" stroke-width="1.51"/><path d="M-231,370L-23,202L-217,199Z" fill="#e0ecf8" stroke="#e0ecf8" stroke-width="1.51"/><path d="M-169,729L-193,1030L-158,856Z" fill="#96abd5" stroke="#96abd5" stroke-width="1.51"/><path d="M2134,1275L2264,1284L2257,1175Z" fill="#08306b" stroke="#08306b" stroke-width="1.51"/><path d="M2257,1175L2264,1284L2303,841Z" fill="#08306b" stroke="#08306b" stroke-width="1.51"/><path d="M1938,1339L2264,1284L2134,1275Z" fill="#08306b" stroke="#08306b" stroke-width="1.51"/><path d="M-217,199L-23,202L-194,103Z" fill="#e8f1fa" stroke="#e8f1fa" stroke-width="1.51"/><path d="M-4,1184L-48,1330L147,1314Z" fill="#858db3" stroke="#858db3" stroke-width="1.51"/><path d="M147,1314L-48,1330L399,1343Z" fill="#7e89b0" stroke="#7e89b0" stroke-width="1.51"/><path d="M-212,1143L-48,1330L-4,1184Z" fill="#878eb3" stroke="#878eb3" stroke-width="1.51"/><path d="M-158,856L-193,1030L-32,1006Z" fill="#909eca" stroke="#909eca" stroke-width="1.51"/><path d="M-222,569L-193,1030L-169,729Z" fill="#9cb8dc" stroke="#9cb8dc" stroke-width="1.51"/><path d="M-194,103L-23,202L-22,113Z" fill="#eaf2fb" stroke="#eaf2fb" stroke-width="1.51"/><path d="M-188,-56L-22,113L-3,-103Z" fill="#f7fbff" stroke="#f7fbff" stroke-width="1.51"/><path d="M-188,-56L-194,103L-22,113Z" fill="#f2f8fe" stroke="#f2f8fe" stroke-width="1.51"/><path d="M80,-207L-12,-242L-3,-103Z" fill="#f6fafe" stroke="#f6fafe" stroke-width="1.51"/><path d="M238,-242L-12,-242L80,-207Z" fill="#f2f7fe" stroke="#f2f7fe" stroke-width="1.51"/><path d="M543,-265L-12,-242L238,-242Z" fill="#eaf2fb" stroke="#eaf2fb" stroke-width="1.51"/><path d="M-231,370L-212,1143L-222,569Z" fill="#a3c2e2" stroke="#a3c2e2" stroke-width="1.51"/><path d="M-222,569L-212,1143L-193,1030Z" fill="#93a5d0" stroke="#93a5d0" stroke-width="1.51"/><path d="M-193,1030L-212,1143L-32,1006Z" fill="#8891b7" stroke="#8891b7" stroke-width="1.51"/><path d="M2238,-64L2289,-236L2095,-204Z" fill="#878eb3" stroke="#878eb3" stroke-width="1.51"/><path d="M2095,-204L2289,-236L1945,-207Z" fill="#878eb3" stroke="#878eb3" stroke-width="1.51"/><path d="M2285,543L2289,-236L2248,88Z" fill="#7b87af" stroke="#7b87af" stroke-width="1.51"/><path d="M2303,841L2289,-236L2285,543Z" fill="#5e7aa6" stroke="#5e7aa6" stroke-width="1.51"/><path d="M-163,-213L-188,-56L-3,-103Z" fill="#f7fbff" stroke="#f7fbff" stroke-width="1.51"/><path d="M-194,103L-188,-56L-217,199Z" fill="#f0f6fd" stroke="#f0f6fd" stroke-width="1.51"/><path d="M-212,1143L-203,1328L-48,1330Z" fill="#878eb3" stroke="#878eb3" stroke-width="1.51"/><path d="M-48,1330L-203,1328L399,1343Z" fill="#848db2" stroke="#848db2" stroke-width="1.51"/><path d="M-12,-242L-163,-213L-3,-103Z" fill="#f7fbff" stroke="#f7fbff" stroke-width="1.51"/></svg>